<?xml version="1.0" encoding="UTF-8" standalone="no"?>
<!-- Generator: Adobe Illustrator 27.5.0, SVG Export Plug-In . SVG Version: 6.00 Build 0)  -->

<svg
   version="1.1"
   id="Layer_1"
   x="0px"
   y="0px"
   viewBox="0 0 408.58444 398.48965"
   xml:space="preserve"
   sodipodi:docname="books_pc2.svg"
   inkscape:version="1.3.1 (9b9bdc1480, 2023-11-25, custom)"
   width="408.58444"
   height="398.48965"
   xmlns:inkscape="http://www.inkscape.org/namespaces/inkscape"
   xmlns:sodipodi="http://sodipodi.sourceforge.net/DTD/sodipodi-0.dtd"
   xmlns:xlink="http://www.w3.org/1999/xlink"
   xmlns="http://www.w3.org/2000/svg"
   xmlns:svg="http://www.w3.org/2000/svg"
   xmlns:rdf="http://www.w3.org/1999/02/22-rdf-syntax-ns#"
   xmlns:cc="http://creativecommons.org/ns#"
   xmlns:dc="http://purl.org/dc/elements/1.1/"><metadata
     id="metadata823"><rdf:RDF><cc:Work
         rdf:about=""><dc:format>image/svg+xml</dc:format><dc:type
           rdf:resource="http://purl.org/dc/dcmitype/StillImage" /><dc:title /></cc:Work></rdf:RDF></metadata><defs
     id="defs821" /><sodipodi:namedview
     pagecolor="#ffffff"
     bordercolor="#666666"
     borderopacity="1"
     objecttolerance="10"
     gridtolerance="10"
     guidetolerance="10"
     inkscape:pageopacity="0"
     inkscape:pageshadow="2"
     inkscape:window-width="1691"
     inkscape:window-height="1371"
     id="namedview819"
     showgrid="false"
     inkscape:zoom="1.2762847"
     inkscape:cx="329.86371"
     inkscape:cy="332.9978"
     inkscape:window-x="1749"
     inkscape:window-y="32"
     inkscape:window-maximized="0"
     inkscape:current-layer="Layer_1"
     fit-margin-top="0"
     fit-margin-left="0"
     fit-margin-right="0"
     fit-margin-bottom="0"
     inkscape:showpageshadow="2"
     inkscape:pagecheckerboard="0"
     inkscape:deskcolor="#d1d1d1" /><path
     style="fill:#ac9d93"
     d="m 280.767,273.41366 -1.988,1.155 c -1.553,-4.444 -5.685,-9.813 -8.486,-12.859 -1.893,-2.055 -2.088,-4.319 -9.39,-7.774 -5.383,-2.538 -8.064,-3.021 -10.517,-4.704 l -5.506,-3.699 c -2.311,-1.57 -4.373,-1.764 -6.674,-0.435 -0.141,0.08 -0.281,0.168 -0.426,0.261 -1.729,1.117 -4.232,3.706 0.734,6.077 0.344,0.228 6.906,4.589 8.83,5.465 0.893,0.819 5.027,4.693 4.131,5.214 -0.145,0.082 -0.416,0.079 -0.85,-0.036 -7.182,-1.932 -18.547,-8.537 -19.146,-8.885 l -28.535,-16.583 c -2.496,-1.45 -6.484,-1.465 -8.914,-0.061 -2.459,1.418 -2.412,3.72 0.088,5.157 l 25.588,14.87 -0.943,0.739 -6.988,-4.061 c -2.479,-1.441 -6.48,-1.478 -8.928,-0.068 -2.43,1.404 -2.389,3.728 0.09,5.171 l 8.43,4.898 -0.916,0.74 -4.207,-2.445 c -2.492,-1.449 -6.482,-1.479 -8.926,-0.069 -2.432,1.404 -2.404,3.722 0.086,5.172 l 5.639,3.274 -0.785,0.636 -0.895,-0.522 c -2.496,-1.449 -6.482,-1.479 -8.916,-0.075 -2.443,1.412 -2.393,3.73 0.088,5.171 l 2.326,1.352 c 0.012,0.008 7.146,5.866 18.795,13.359 3.701,2.37 13.035,6.118 22.359,9.574 l -4.869,2.829 31.457,18.161 49.622,-28.837 z"
     id="path10"
     inkscape:connector-curvature="0" /><g
     id="g276"
     transform="translate(0,-28.149342)"><g
       id="g14"
       style="fill:#ac9d93"
       transform="translate(-12.132574,0.3873625)"><polygon
         style="fill:#ac9d93"
         points="395.044,329.785 314.21,282.816 154.104,374.951 234.936,421.924 "
         id="polygon12" /></g><g
       id="g274"><g
         id="g30"><g
           style="enable-background:new"
           id="g28"><g
             id="g18"><polygon
               style="fill:#181d28"
               points="161.831,370.555 161.856,379.668 242.688,426.639 242.663,417.529 "
               id="polygon16" /></g><g
             id="g22"><polygon
               style="fill:#343a4a"
               points="242.663,417.529 242.688,426.639 402.796,334.506 402.77,325.389 "
               id="polygon20" /></g><g
             id="g26"><polygon
               style="fill:#505666"
               points="161.831,370.555 242.663,417.529 402.77,325.389 321.938,278.42 "
               id="polygon24" /></g></g></g><g
         id="g272"><g
           style="enable-background:new"
           id="g40"><g
             id="g34"><polygon
               style="fill:#181d28"
               points="312.204,292.168 312.212,295.205 324.597,302.4 324.59,299.365 "
               id="polygon32" /></g><g
             id="g38"><polygon
               style="fill:#181d28"
               points="324.59,299.365 324.597,302.4 338.396,294.438 338.386,291.398 "
               id="polygon36" /></g></g><g
           style="enable-background:new"
           id="g50"><g
             id="g44"><polygon
               style="fill:#181d28"
               points="289.891,305.051 289.899,308.086 302.282,315.285 302.274,312.248 "
               id="polygon42" /></g><g
             id="g48"><polygon
               style="fill:#181d28"
               points="302.274,312.248 302.282,315.285 316.08,307.322 316.072,304.281 "
               id="polygon46" /></g></g><g
           style="enable-background:new"
           id="g60"><g
             id="g54"><polygon
               style="fill:#181d28"
               points="267.553,317.951 267.56,320.984 279.945,328.184 279.935,325.147 "
               id="polygon52" /></g><g
             id="g58"><polygon
               style="fill:#181d28"
               points="279.935,325.147 279.945,328.184 293.743,320.219 293.735,317.178 "
               id="polygon56" /></g></g><g
           style="enable-background:new"
           id="g70"><g
             id="g64"><polygon
               style="fill:#181d28"
               points="245.236,330.824 245.245,333.869 257.629,341.068 257.622,338.025 "
               id="polygon62" /></g><g
             id="g68"><polygon
               style="fill:#181d28"
               points="257.622,338.025 257.629,341.068 271.429,333.102 271.42,330.06 "
               id="polygon66" /></g></g><g
           style="enable-background:new"
           id="g80"><g
             id="g74"><polygon
               style="fill:#181d28"
               points="222.899,343.73 222.908,346.764 235.293,353.963 235.282,350.924 "
               id="polygon72" /></g><g
             id="g78"><polygon
               style="fill:#181d28"
               points="235.282,350.924 235.293,353.963 249.114,345.978 249.104,342.947 "
               id="polygon76" /></g></g><g
           style="enable-background:new"
           id="g90"><g
             id="g84"><polygon
               style="fill:#181d28"
               points="200.581,356.609 200.593,359.65 212.976,366.848 212.969,363.805 "
               id="polygon82" /></g><g
             id="g88"><polygon
               style="fill:#181d28"
               points="212.969,363.805 212.976,366.848 226.776,358.881 226.768,355.842 "
               id="polygon86" /></g></g><g
           style="enable-background:new"
           id="g102"><g
             id="g94"><polygon
               style="fill:#181d28"
               points="178.268,369.496 178.278,372.533 190.662,379.728 190.654,376.695 "
               id="polygon92" /></g><g
             id="g100"><g
               id="g98"><polygon
                 style="fill:#181d28"
                 points="190.654,376.695 190.662,379.728 204.461,371.762 204.453,368.727 "
                 id="polygon96" /></g></g></g><g
           style="enable-background:new"
           id="g112"><g
             id="g106"><polygon
               style="fill:#181d28"
               points="336.193,306.109 336.203,309.145 348.564,316.328 348.555,313.291 "
               id="polygon104" /></g><g
             id="g110"><polygon
               style="fill:#181d28"
               points="348.555,313.291 348.564,316.328 362.361,308.363 362.352,305.328 "
               id="polygon108" /></g></g><g
           style="enable-background:new"
           id="g122"><g
             id="g116"><polygon
               style="fill:#181d28"
               points="360.942,320.486 360.949,323.525 373.333,330.723 373.328,327.685 "
               id="polygon114" /></g><g
             id="g120"><polygon
               style="fill:#181d28"
               points="373.328,327.685 373.333,330.723 387.132,322.758 387.124,319.723 "
               id="polygon118" /></g></g><g
           style="enable-background:new"
           id="g132"><g
             id="g126"><polygon
               style="fill:#181d28"
               points="313.88,318.99 313.887,322.025 326.249,329.215 326.24,326.176 "
               id="polygon124" /></g><g
             id="g130"><polygon
               style="fill:#181d28"
               points="326.24,326.176 326.249,329.215 340.046,321.244 340.036,318.209 "
               id="polygon128" /></g></g><g
           style="enable-background:new"
           id="g142"><g
             id="g136"><polygon
               style="fill:#181d28"
               points="291.54,331.891 291.549,334.926 303.911,342.109 303.902,339.074 "
               id="polygon134" /></g><g
             id="g140"><polygon
               style="fill:#181d28"
               points="303.902,339.074 303.911,342.109 317.709,334.143 317.699,331.105 "
               id="polygon138" /></g></g><g
           style="enable-background:new"
           id="g152"><g
             id="g146"><polygon
               style="fill:#181d28"
               points="269.226,344.77 269.234,347.807 281.596,354.99 281.586,351.955 "
               id="polygon144" /></g><g
             id="g150"><polygon
               style="fill:#181d28"
               points="281.586,351.955 281.596,354.99 295.392,347.029 295.386,343.988 "
               id="polygon148" /></g></g><g
           style="enable-background:new"
           id="g162"><g
             id="g156"><polygon
               style="fill:#181d28"
               points="246.889,357.67 246.895,360.707 259.256,367.891 259.25,364.852 "
               id="polygon154" /></g><g
             id="g160"><polygon
               style="fill:#181d28"
               points="259.25,364.852 259.256,367.891 273.079,359.908 273.068,356.875 "
               id="polygon158" /></g></g><g
           style="enable-background:new"
           id="g172"><g
             id="g166"><polygon
               style="fill:#181d28"
               points="224.571,370.555 224.58,373.588 236.944,380.773 236.936,377.732 "
               id="polygon164" /></g><g
             id="g170"><polygon
               style="fill:#181d28"
               points="236.936,377.732 236.944,380.773 250.741,372.803 250.731,369.773 "
               id="polygon168" /></g></g><g
           style="enable-background:new"
           id="g182"><g
             id="g176"><polygon
               style="fill:#181d28"
               points="202.26,383.435 202.267,386.475 214.631,393.656 214.62,390.621 "
               id="polygon174" /></g><g
             id="g180"><polygon
               style="fill:#181d28"
               points="214.62,390.621 214.631,393.656 228.427,385.691 228.418,382.65 "
               id="polygon178" /></g></g><g
           style="enable-background:new"
           id="g192"><g
             id="g186"><polygon
               style="fill:#181d28"
               points="249.204,385.002 249.21,388.039 261.593,395.238 261.585,392.201 "
               id="polygon184" /></g><g
             id="g190"><polygon
               style="fill:#181d28"
               points="261.585,392.201 261.593,395.238 364.816,335.639 364.81,332.607 "
               id="polygon188" /></g></g><g
           style="enable-background:new"
           id="g202"><g
             id="g196"><polygon
               style="fill:#181d28"
               points="227.006,397.82 227.015,400.852 239.399,408.051 239.391,405.016 "
               id="polygon194" /></g><g
             id="g200"><polygon
               style="fill:#181d28"
               points="239.391,405.016 239.399,408.051 253.195,400.088 253.188,397.049 "
               id="polygon198" /></g></g><g
           id="g206"><polygon
             style="fill:#676d7c"
             points="312.204,292.168 324.59,299.365 338.386,291.398 325.999,284.201 "
             id="polygon204" /></g><g
           id="g210"><polygon
             style="fill:#676d7c"
             points="289.891,305.051 302.274,312.248 316.072,304.281 303.689,297.082 "
             id="polygon208" /></g><g
           id="g214"><polygon
             style="fill:#676d7c"
             points="267.553,317.951 279.935,325.147 293.735,317.178 281.352,309.977 "
             id="polygon212" /></g><g
           id="g218"><polygon
             style="fill:#676d7c"
             points="245.236,330.824 257.622,338.025 271.42,330.06 259.031,322.863 "
             id="polygon216" /></g><g
           id="g222"><polygon
             style="fill:#676d7c"
             points="222.899,343.73 235.282,350.924 249.104,342.947 236.719,335.746 "
             id="polygon220" /></g><g
           id="g226"><polygon
             style="fill:#676d7c"
             points="200.581,356.609 212.969,363.805 226.768,355.842 214.383,348.643 "
             id="polygon224" /></g><g
           id="g230"><polygon
             style="fill:#676d7c"
             points="178.268,369.496 190.654,376.695 204.453,368.727 192.066,361.527 "
             id="polygon228" /></g><g
           id="g234"><polygon
             style="fill:#676d7c"
             points="336.193,306.109 348.555,313.291 362.352,305.328 349.99,298.143 "
             id="polygon232" /></g><g
           id="g238"><polygon
             style="fill:#676d7c"
             points="360.942,320.486 373.328,327.685 387.124,319.723 374.739,312.52 "
             id="polygon236" /></g><g
           id="g242"><polygon
             style="fill:#676d7c"
             points="313.88,318.99 326.24,326.176 340.036,318.209 327.677,311.023 "
             id="polygon240" /></g><g
           id="g246"><polygon
             style="fill:#676d7c"
             points="291.54,331.891 303.902,339.074 317.699,331.105 305.34,323.922 "
             id="polygon244" /></g><g
           id="g250"><polygon
             style="fill:#676d7c"
             points="269.226,344.77 281.586,351.955 295.386,343.988 283.024,336.801 "
             id="polygon248" /></g><g
           id="g254"><polygon
             style="fill:#676d7c"
             points="246.889,357.67 259.25,364.852 273.068,356.875 260.71,349.688 "
             id="polygon252" /></g><g
           id="g258"><polygon
             style="fill:#676d7c"
             points="224.571,370.555 236.936,377.732 250.731,369.773 238.372,362.584 "
             id="polygon256" /></g><g
           id="g262"><polygon
             style="fill:#676d7c"
             points="202.26,383.435 214.62,390.621 228.418,382.65 216.058,375.469 "
             id="polygon260" /></g><g
           id="g266"><polygon
             style="fill:#676d7c"
             points="249.204,385.002 261.585,392.201 364.81,332.607 352.426,325.408 "
             id="polygon264" /></g><g
           id="g270"><polygon
             style="fill:#676d7c"
             points="227.006,397.82 239.391,405.016 253.188,397.049 240.805,389.853 "
             id="polygon268" /></g></g></g></g><g
     id="g680"
     transform="translate(0,-28.149342)"><g
       id="g286"
       style="fill:#ac9d93"><defs
         id="defs279"><rect
           id="SVGID_1_"
           width="450"
           height="450"
           x="0"
           y="0" /></defs><clipPath
         id="SVGID_00000121248130144540569280000018207800022243204497_"><use
           xlink:href="#SVGID_1_"
           style="overflow:visible"
           id="use281"
           x="0"
           y="0"
           width="100%"
           height="100%" /></clipPath><path
         style="fill:#ac9d93"
         d="M 71.107,342.709 245.869,241.815 c 4.321,-2.497 8.242,-6.782 11.077,-11.678 l -0.004,-1.002 c -0.014,-4.943 -1.779,-8.414 -4.618,-10.038 0.016,0.007 -110.266,-65.964 -110.253,-65.956 l -11.398,-6.626 c -2.86,-1.66 -6.819,-1.431 -11.174,1.088 l -174.765,100.89 c -4.331,2.506 -8.244,6.781 -11.073,11.67 l 0.004,1.057 c 0.011,4.896 1.751,8.359 4.557,9.982 l 121.7,72.607 -0.026,-0.027 c 2.857,1.677 6.824,1.46 11.211,-1.073 z"
         clip-path="url(#SVGID_00000121248130144540569280000018207800022243204497_)"
         id="path284"
         inkscape:connector-curvature="0" /></g><g
       id="g370"><g
         id="g306"><g
           style="enable-background:new"
           id="g304"><g
             id="g290"><polygon
               style="fill:#181d28"
               points="168.614,350.35 130.616,328.262 130.593,320.08 168.593,342.162 "
               id="polygon288" /></g><g
             id="g294"><polygon
               style="fill:#505666"
               points="168.593,342.162 130.593,320.08 206.772,276.102 244.771,298.18 "
               id="polygon292" /></g><path
             style="fill:#343a4a"
             d="m 206.772,276.102 -2.274,1.313 6.867,3.99 -0.916,0.74 -4.207,-2.445 c -1.084,-0.63 -2.453,-0.976 -3.853,-1.067 l -6.834,3.945 c 0.156,0.808 0.77,1.598 1.847,2.225 l 5.639,3.274 -0.785,0.636 -0.895,-0.522 c -2.496,-1.449 -6.482,-1.479 -8.916,-0.075 -2.443,1.412 -2.393,3.73 0.088,5.171 l 2.326,1.352 c 0.012,0.008 7.146,5.866 18.795,13.359 1.617,1.035 4.311,2.334 7.608,3.757 l 23.509,-13.573 z"
             id="path296"
             inkscape:connector-curvature="0" /><g
             id="g300"><polygon
               style="fill:#343a4a"
               points="244.771,298.18 244.796,306.361 168.614,350.35 168.593,342.162 "
               id="polygon298" /></g><polygon
             style="fill:#181d28"
             points="221.523,319.799 244.796,306.361 244.771,298.18 221.523,311.603 "
             id="polygon302" /></g></g><g
         id="g320"><g
           style="enable-background:new"
           id="g318"><g
             id="g310"><polygon
               style="fill:#073856"
               points="186.724,264.809 175.323,258.191 188.611,250.518 200.007,257.139 "
               id="polygon308" /></g><g
             id="g316"><polygon
               style="fill:#343a4a"
               points="186.74,316.621 175.344,309.998 175.323,258.191 186.724,264.809 "
               id="polygon312" /><polygon
               style="fill:#52544f"
               points="200.007,257.139 200.064,308.926 186.74,316.621 186.724,264.809 "
               id="polygon314" /></g></g></g><g
         id="g368"><g
           id="g364"><g
             style="enable-background:new"
             id="g362"><g
               id="g324"><polygon
                 style="fill:#181d28"
                 points="283.319,215.291 271.916,208.667 271.446,43.994 282.848,50.616 "
                 id="polygon322" /></g><g
               id="g328"><path
                 style="fill:#505666"
                 d="m 280.275,29.212 11.399,6.625 c -2.86,-1.66 -6.818,-1.43 -11.178,1.085 L 269.102,30.3 c 4.355,-2.519 8.313,-2.749 11.173,-1.088 z"
                 id="path326"
                 inkscape:connector-curvature="0" /></g><g
               id="g332"><polygon
                 style="fill:#181d28"
                 points="103.868,318.893 92.469,312.268 271.916,208.667 283.319,215.291 "
                 id="polygon330" /></g><g
               id="g338"
               style="fill:#ffe6d5"><g
                 id="g336"
                 style="fill:#ffe6d5"><polygon
                   style="fill:#ffe6d5"
                   points="280.07,49.013 100.625,152.617 101.09,317.293 280.538,213.69 "
                   id="polygon334" /></g></g><path
               style="fill:#181d28"
               d="M 90.539,353.539 90.09,164.885 78.691,158.259 79.142,346.912 c 0.013,4.898 1.752,8.361 4.558,9.984 l 11.402,6.631 c -2.808,-1.632 -4.549,-5.089 -4.563,-9.988 z"
               id="path340"
               inkscape:connector-curvature="0" /><g
               id="g344"><path
                 style="fill:#d7d7dd"
                 d="m 90.539,353.539 -0.032,-13.4 -3.194,-1.857 0.033,13.829 c 0.01,3.722 1.02,6.609 2.734,8.496 l 5.021,2.92 c -2.807,-1.632 -4.548,-5.089 -4.562,-9.988 z"
                 id="path342"
                 inkscape:connector-curvature="0" /></g><g
               id="g348"><polygon
                 style="fill:#676866"
                 points="105.735,137.822 94.336,131.192 269.102,30.3 280.497,36.922 "
                 id="polygon346" /></g><g
               id="g354"><g
                 id="g352"><path
                   style="fill:#181d28"
                   d="m 90.09,164.885 -11.399,-6.626 c -0.026,-9.932 6.971,-22.052 15.646,-27.067 l 11.398,6.63 c -8.674,5.007 -15.674,17.127 -15.645,27.063 z"
                   id="path350"
                   inkscape:connector-curvature="0" /></g></g><g
               id="g358"><path
                 style="fill:#343a4a"
                 d="m 280.497,36.922 c 8.641,-4.987 15.724,-0.989 15.75,8.935 l 0.448,188.652 c 0.029,9.887 -7.001,22.03 -15.645,27.023 L 106.288,362.426 c -8.673,5.008 -15.721,0.996 -15.749,-8.887 L 90.09,164.885 c -0.029,-9.936 6.971,-22.056 15.645,-27.063 z m 2.822,178.369 -0.472,-164.675 -179.444,103.608 0.465,164.669 z"
                 id="path356"
                 inkscape:connector-curvature="0" /></g><path
               style="fill:#505666"
               d="m 94.602,149.592 c 2.833,-4.933 6.771,-9.247 11.133,-11.77 l -11.398,-6.63 c -4.36,2.521 -8.296,6.836 -11.129,11.773 z"
               id="path360"
               inkscape:connector-curvature="0" /></g></g><path
           style="fill:#f1f1f3"
           d="m 90.539,353.539 c 0.028,9.883 7.076,13.895 15.749,8.887 L 281.05,261.533 c 8.645,-4.993 15.675,-17.137 15.645,-27.023 L 296.663,221.032 90.506,340.058 Z"
           id="path366"
           inkscape:connector-curvature="0" /></g></g><g
       id="g382"><g
         style="enable-background:new"
         id="g380"><g
           id="g374"><path
             style="fill:#1b5e92"
             d="m 207.58,267.475 c 0.673,-0.387 1.228,-1.326 1.225,-2.102 -0.002,-0.787 -0.561,-1.088 -1.229,-0.701 l -6.76,3.902 c -0.673,0.389 -1.227,1.334 -1.223,2.123 0.001,0.768 0.56,1.066 1.23,0.68 z"
             id="path372"
             inkscape:connector-curvature="0" /></g><g
           id="g378"><path
             style="fill:#feffff"
             d="m 207.576,264.672 c 0.668,-0.387 1.227,-0.086 1.229,0.701 0.003,0.775 -0.552,1.715 -1.225,2.102 l -6.757,3.902 c -0.671,0.387 -1.23,0.088 -1.23,-0.68 -0.004,-0.789 0.55,-1.734 1.223,-2.123 z"
             id="path376"
             inkscape:connector-curvature="0" /></g></g></g><g
       id="g668"><g
         style="enable-background:new"
         id="g488"><g
           id="g386"><polygon
             style="fill:#ffce00"
             points="299.614,203.559 240.802,169.38 240.821,179.891 299.635,214.066 "
             id="polygon384" /></g><g
           id="g390"><polygon
             style="fill:#ffce00"
             points="299.635,214.066 240.821,179.891 228.329,187.103 287.142,221.29 "
             id="polygon388" /></g><g
           id="g394"><polygon
             style="fill:#ffffff"
             points="287.107,210.779 228.296,176.602 228.329,187.103 287.142,221.29 "
             id="polygon392" /></g><g
           id="g398"><polygon
             style="fill:#ffffff"
             points="299.614,203.559 240.802,169.38 228.296,176.602 287.107,210.779 "
             id="polygon396" /></g><g
           id="g402"><polygon
             style="fill:#ffce00"
             points="299.43,164.706 240.621,130.535 240.655,141.037 299.452,175.216 "
             id="polygon400" /></g><g
           id="g406"><polygon
             style="fill:#ffce00"
             points="299.452,175.216 240.655,141.037 228.137,148.266 286.939,182.435 "
             id="polygon404" /></g><g
           id="g410"><polygon
             style="fill:#ffffff"
             points="299.43,164.706 240.621,130.535 228.101,137.754 286.912,171.936 "
             id="polygon408" /></g><g
           id="g414"><polygon
             style="fill:#ffffff"
             points="286.912,171.936 228.101,137.754 228.137,148.266 286.939,182.435 "
             id="polygon412" /></g><g
           id="g418"><polygon
             style="fill:#ffce00"
             points="299.348,125.813 240.539,91.639 240.575,102.15 299.383,136.325 "
             id="polygon416" /></g><g
           id="g422"><polygon
             style="fill:#ffce00"
             points="299.383,136.325 240.575,102.15 228.066,109.366 286.878,143.54 "
             id="polygon420" /></g><g
           id="g426"><polygon
             style="fill:#ffb600"
             points="303.773,105.543 244.967,71.363 244.579,71.712 303.388,105.891 "
             id="polygon424" /></g><g
           id="g430"><polygon
             style="fill:#ffb600"
             points="303.388,105.891 244.579,71.712 244.977,73.152 303.79,107.33 "
             id="polygon428" /></g><g
           id="g434"><polygon
             style="fill:#ffffff"
             points="286.856,133.033 228.044,98.856 228.066,109.366 286.878,143.54 "
             id="polygon432" /></g><g
           id="g438"><polygon
             style="fill:#ffffff"
             points="299.348,125.813 240.539,91.639 228.044,98.856 286.856,133.033 "
             id="polygon436" /></g><g
           id="g442"><path
             style="fill:#ffce00"
             d="m 304.128,231.479 -21.61,12.482 -0.366,-130.309 21.613,-12.478 z m -17.189,-49.044 12.514,-7.219 -0.022,-10.51 -12.518,7.23 z m 0.203,38.855 12.493,-7.225 -0.021,-10.507 -12.507,7.221 z m 12.206,-95.477 -12.491,7.22 0.022,10.506 12.505,-7.215 z"
             id="path440"
             inkscape:connector-curvature="0" /></g><g
           id="g446"><polygon
             style="fill:#ffffff"
             points="287.107,210.779 287.142,221.29 299.635,214.066 299.614,203.559 "
             id="polygon444" /></g><g
           id="g450"><polygon
             style="fill:#ffffff"
             points="286.912,171.936 286.939,182.435 299.452,175.216 299.43,164.706 "
             id="polygon448" /></g><g
           id="g454"><polygon
             style="fill:#ffffff"
             points="286.856,133.033 286.878,143.54 299.383,136.325 299.348,125.813 "
             id="polygon452" /></g><g
           id="g458"><polygon
             style="fill:#ffb600"
             points="282.151,113.652 223.345,79.477 223.709,209.788 282.518,243.961 "
             id="polygon456" /></g><path
           style="fill:#e8a000"
           d="m 223.699,206.33 55.421,32.234 c 1.626,0.947 2.943,0.189 2.943,-1.691 V 127.648 c 0,-1.881 -1.317,-4.172 -2.942,-5.118 L 223.374,90.092 Z"
           id="path460"
           inkscape:connector-curvature="0" /><g
           id="g464"><polygon
             style="fill:#eae1b9"
             points="303.765,101.174 244.954,66.995 223.345,79.477 282.151,113.652 "
             id="polygon462" /></g><g
           id="g486"><g
             id="g484"><polygon
               style="fill:#ffb600"
               points="303.765,101.174 244.954,66.995 223.345,79.477 282.151,113.652 "
               id="polygon466" /><polygon
               style="fill:#eae1b9"
               points="242.215,68.581 298.22,101.162 282.151,110.434 226.152,77.85 "
               id="polygon468" /><g
               id="g482"><polygon
                 style="fill:#c9bd8d"
                 points="291.451,105.067 292.008,104.746 236.275,72.008 235.455,72.482 "
                 id="polygon470" /><polygon
                 style="fill:#c9bd8d"
                 points="294.526,103.293 295.083,102.972 239.351,70.234 238.53,70.707 "
                 id="polygon472" /><polygon
                 style="fill:#c9bd8d"
                 points="241.605,68.933 297.602,101.518 298.22,101.162 285.795,93.934 242.215,68.581 "
                 id="polygon474" /><polygon
                 style="fill:#c9bd8d"
                 points="282.151,110.434 282.782,110.069 227.049,77.332 226.227,77.806 "
                 id="polygon476" /><polygon
                 style="fill:#c9bd8d"
                 points="285.3,108.617 285.857,108.295 230.125,75.557 229.305,76.031 "
                 id="polygon478" /><polygon
                 style="fill:#c9bd8d"
                 points="288.376,106.842 288.933,106.521 233.2,73.783 232.379,74.256 "
                 id="polygon480" /></g></g></g></g><g
         style="enable-background:new"
         id="g508"><g
           id="g492"
           style="fill:#803300"><polygon
             style="fill:#803300"
             points="257.392,137.351 198.582,103.171 198.926,224.095 257.734,258.272 "
             id="polygon490" /></g><g
           id="g500"><polygon
             style="fill:#552200"
             points="279.005,124.873 220.195,90.699 198.582,103.171 257.392,137.351 "
             id="polygon498" /></g><polygon
           style="fill:#eae1b9"
           points="272.969,124.741 256.901,134.014 201.253,101.636 217.309,92.364 "
           id="polygon502" /><g
           id="g506"><polygon
             style="fill:#ff7f2a"
             points="257.392,137.351 257.734,258.272 279.347,245.799 279.005,124.873 "
             id="polygon504" /></g></g><g
         style="enable-background:new"
         id="g538"><g
           id="g512"
           style="fill:#483e37"><polygon
             style="fill:#483e37"
             points="232.599,151.658 173.79,117.485 174.128,238.404 232.94,272.59 "
             id="polygon510" /></g><g
           id="g516"><polygon
             style="fill:#483e37"
             points="254.211,139.183 195.399,105.008 173.79,117.485 232.599,151.658 "
             id="polygon514" /></g><polygon
           style="fill:#eae1b9"
           points="193.188,107.032 248.836,139.41 232.781,148.687 177.12,116.306 "
           id="polygon518" /><g
           id="g532"><polygon
             style="fill:#c9bd8d"
             points="180.502,114.354 179.682,114.828 235.332,147.213 235.891,146.89 "
             id="polygon520" /><polygon
             style="fill:#c9bd8d"
             points="192.802,107.255 191.981,107.728 247.626,140.108 248.184,139.786 "
             id="polygon522" /><polygon
             style="fill:#c9bd8d"
             points="177.427,116.129 177.12,116.306 232.781,148.687 232.819,148.665 "
             id="polygon524" /><polygon
             style="fill:#c9bd8d"
             points="241.479,143.661 242.038,143.338 186.651,110.804 185.832,111.278 "
             id="polygon526" /><polygon
             style="fill:#c9bd8d"
             points="244.552,141.884 245.111,141.562 189.727,109.03 188.906,109.503 "
             id="polygon528" /><polygon
             style="fill:#c9bd8d"
             points="238.405,145.437 238.964,145.114 183.577,112.579 182.756,113.053 "
             id="polygon530" /></g><g
           id="g536"
           style="fill:#6c5d53"><polygon
             style="fill:#6c5d53"
             points="232.599,151.658 232.94,272.59 254.553,260.107 254.211,139.183 "
             id="polygon534" /></g></g><g
         id="g586"><g
           style="enable-background:new"
           id="g584"><g
             id="g542"><polygon
               style="fill:#fffbeb"
               points="293.165,204.277 254.734,273.482 194.377,206.445 232.806,137.245 "
               id="polygon540" /></g><g
             id="g546"><polygon
               style="fill:#f4efdc"
               points="232.806,137.245 234.334,136.297 294.694,203.331 278.317,213.156 217.957,146.123 219.515,145.189 220.694,146.533 233.994,138.553 "
               id="polygon544" /></g><g
             id="g552"><g
               id="g550"><path
                 style="fill:#eae1b9"
                 d="m 220.694,146.533 57.958,64.368 13.303,-7.982 -57.961,-64.367 z"
                 id="path548"
                 inkscape:connector-curvature="0" /></g></g><g
             id="g566"><polygon
               style="fill:#c9bd8d"
               points="232.979,139.162 290.964,203.514 291.955,202.919 233.971,138.566 "
               id="polygon554" /><polygon
               style="fill:#c9bd8d"
               points="221.686,145.939 220.694,146.533 278.652,210.901 279.496,210.142 "
               id="polygon556" /><polygon
               style="fill:#c9bd8d"
               points="223.778,144.683 222.787,145.277 280.817,209.602 281.313,209.305 281.733,208.924 "
               id="polygon558" /><polygon
               style="fill:#c9bd8d"
               points="288.798,204.814 288.854,204.78 288.579,203.001 231.688,139.937 230.768,140.489 "
               id="polygon560" /><polygon
               style="fill:#c9bd8d"
               points="226.438,143.087 225.447,143.682 283.477,208.005 283.973,207.708 284.395,207.328 "
               id="polygon562" /><polygon
               style="fill:#c9bd8d"
               points="229.099,141.49 228.107,142.085 286.137,206.41 286.631,206.114 287.054,205.732 "
               id="polygon564" /></g><g
             id="g570"><polygon
               style="fill:#fffbeb"
               points="278.317,213.156 239.886,282.359 179.528,215.323 217.957,146.123 "
               id="polygon568" /></g><polygon
             style="fill:#eae1b9"
             points="210.672,159.242 179.528,215.323 210.672,249.913 "
             id="polygon572" /><polygon
             style="fill:#ce3500"
             points="227.788,250.516 225.44,254.744 238.092,268.796 240.44,264.567 "
             id="polygon574" /><g
             id="g578"><path
               style="fill:#ffce00"
               d="m 231.814,189.917 c 8.287,4.784 14.98,16.382 14.953,25.899 -0.026,9.521 -6.765,13.361 -15.051,8.577 -8.282,-4.782 -14.976,-16.375 -14.949,-25.897 0.028,-9.517 6.765,-13.362 15.047,-8.579 z"
               id="path576"
               inkscape:connector-curvature="0" /></g><g
             id="g582"><polygon
               style="fill:#eae1b9"
               points="278.317,213.156 294.694,203.331 256.263,272.535 239.886,282.359 "
               id="polygon580" /></g></g></g><g
         style="enable-background:new"
         id="g622"><g
           id="g590"><polygon
             style="fill:#e83e03"
             points="188.473,148.789 129.666,114.496 129.959,263.986 188.77,298.164 "
             id="polygon588" /></g><polygon
           style="fill:#ce3500"
           points="177.205,291.441 188.77,298.164 188.473,148.789 176.973,142.083 "
           id="polygon592" /><path
           style="opacity:0.3;fill:#a52300"
           d="m 129.959,263.986 58.375,33.924 v -99.596 c 0,-1.881 -1.317,-4.173 -2.943,-5.118 l -55.634,-32.373 z"
           id="path594"
           inkscape:connector-curvature="0" /><g
           id="g598"><polygon
             style="fill:#ffffff"
             points="188.427,178.564 188.473,195.729 207.391,184.809 207.334,167.645 "
             id="polygon596" /></g><polygon
           style="fill:#a52300"
           points="207.678,137.757 188.335,148.669 188.335,298.164 207.678,287.244 "
           id="polygon600" /><g
           id="g604"><polygon
             style="fill:#a52300"
             points="207.678,137.757 148.444,103.581 129.666,114.496 188.335,148.669 "
             id="polygon602" /></g><polygon
           style="fill:#eae1b9"
           points="187.871,146.531 131.444,113.393 147.498,104.123 203.925,137.257 "
           id="polygon606" /><g
           id="g620"><polygon
             style="fill:#c9bd8d"
             points="141.413,107.703 140.591,108.178 197.219,141.131 197.774,140.81 "
             id="polygon608" /><polygon
             style="fill:#c9bd8d"
             points="144.461,105.914 143.64,106.388 200.293,139.355 200.849,139.034 "
             id="polygon610" /><polygon
             style="fill:#c9bd8d"
             points="138.364,109.494 137.542,109.968 194.144,142.907 194.701,142.586 "
             id="polygon612" /><polygon
             style="fill:#c9bd8d"
             points="191.626,144.362 135.315,111.283 134.493,111.758 191.07,144.683 "
             id="polygon614" /><polygon
             style="fill:#c9bd8d"
             points="203.922,137.259 186.571,127.067 147.504,104.127 146.688,104.598 203.367,137.579 "
             id="polygon616" /><polygon
             style="fill:#c9bd8d"
             points="187.871,146.531 187.871,146.531 188.553,146.137 132.266,113.074 131.578,113.471 160.436,130.419 "
             id="polygon618" /></g></g><g
         style="enable-background:new"
         id="g638"><g
           id="g626"
           style="fill:#a05a2c"><polygon
             style="fill:#a05a2c"
             points="166.771,208.145 107.961,174.081 108.258,276.52 167.067,310.69 "
             id="polygon624" /></g><g
           id="g630"
           style="fill:#d38d5f"><polygon
             style="fill:#d38d5f"
             points="185.977,197.339 166.771,208.145 167.067,310.69 185.977,299.772 "
             id="polygon628" /></g><g
           id="g634"><polygon
             style="fill:#784421"
             points="185.977,197.339 126.744,163.044 107.834,173.967 166.771,208.145 "
             id="polygon632" /></g><polygon
           style="fill:#eae1b9"
           points="165.652,206.262 109.24,173.128 125.293,163.849 181.72,196.988 "
           id="polygon636" /></g><g
         style="enable-background:new"
         id="g666"><polygon
           style="fill:#ce3500"
           points="162.379,313.852 162.379,225.389 143.109,236.313 143.109,324.772 "
           id="polygon642" /><g
           id="g646"><polygon
             style="fill:#a52300"
             points="162.379,225.389 103.146,191.217 84.364,202.128 143.109,236.313 "
             id="polygon644" /></g><g
           id="g662"><polygon
             style="fill:#eae1b9"
             points="143.109,234.08 86.156,200.938 102.223,191.665 158.637,224.803 "
             id="polygon648" /><polygon
             style="fill:#c9bd8d"
             points="142.847,234.08 143.393,233.754 86.979,200.616 86.156,201.091 "
             id="polygon650" /><polygon
             style="fill:#c9bd8d"
             points="158.091,225.128 158.637,224.803 102.223,191.665 101.401,192.14 "
             id="polygon652" /><polygon
             style="fill:#c9bd8d"
             points="155.042,226.919 155.588,226.594 99.174,193.456 98.352,193.93 "
             id="polygon654" /><polygon
             style="fill:#c9bd8d"
             points="151.994,228.709 152.54,228.383 96.126,195.245 95.303,195.72 "
             id="polygon656" /><polygon
             style="fill:#c9bd8d"
             points="148.944,230.5 149.491,230.174 93.076,197.036 92.254,197.51 "
             id="polygon658" /><polygon
             style="fill:#c9bd8d"
             points="145.896,232.291 146.442,231.965 90.027,198.825 89.206,199.3 "
             id="polygon660" /></g><polygon
           style="fill:#a52300"
           points="143.109,324.772 143.109,236.313 84.364,202.128 84.364,290.602 "
           id="polygon664" /></g></g><path
       style="fill:#343a4a"
       d="m 296.247,45.857 c -0.026,-9.924 -7.109,-13.922 -15.75,-8.935 l -174.762,100.9 c -8.674,5.007 -15.674,17.127 -15.645,27.063 l 0.449,158.654 13.33,-4.646 -0.465,-164.669 179.444,-103.608 0.054,18.347 h 13.411 z"
       id="path670"
       inkscape:connector-curvature="0" /><g
       id="g674"><polygon
         style="fill:#181d28"
         points="90.539,323.539 79.141,316.912 78.69,158.259 90.09,164.885 "
         id="polygon672" /></g><g
       id="g678"><polygon
         style="fill:#505666"
         points="105.735,137.822 94.336,131.192 269.102,30.3 280.497,36.922 "
         id="polygon676" /></g></g><path
     style="opacity:0.3;fill:#a59863"
     d="m 272.606,178.63966 5.647,6.483 c 0,0 -3.245,6.787 -2.914,8.895 0.267,1.706 3.505,1.422 4.999,0.553 l 6.408,-3.732 c 1.494,-0.869 3.751,-10.965 3.751,-10.965 l -6.306,-4.707 c -1.385,-1.033 -3.819,-1.378 -5.437,-0.77 l -4.599,-0.846 c -2.709,1.198 -2.815,3.913 -1.549,5.089 z"
     id="path682"
     inkscape:connector-curvature="0" /><g
     id="g726"
     transform="translate(0,-28.149342)"><g
       id="g694"><path
         style="fill:#f5b285"
         d="m 275.785,203.438 29.047,21.53 -0.026,-9.474 -29.047,-16.88 c -1.435,-0.826 -2.157,-1.901 -2.162,-2.972 l 0.026,4.826 c 0.005,1.068 0.728,2.145 2.162,2.97 z"
         id="path684"
         inkscape:connector-curvature="0" /><path
         style="fill:#f5b285"
         d="m 326.181,214.484 c 0.396,0.26 7.843,9.857 10.026,10.852 0.918,0.84 4.829,4.506 4.831,5.644 l -0.026,-9.474 c -0.002,-1.137 -3.916,-4.802 -4.831,-5.644 -2.185,-0.994 -9.634,-5.944 -10.024,-6.203 -2.467,-1.18 -3.308,-2.405 -3.312,-3.516 l 0.026,4.824 c 0,1.114 0.847,2.34 3.31,3.517 z"
         id="path686"
         inkscape:connector-curvature="0" /><path
         style="fill:#f5b285"
         d="m 295.338,223.077 -9.568,-5.561 c -1.422,-0.827 -2.138,-1.91 -2.14,-2.985 l 0.026,9.476 c 0.004,1.073 0.718,2.156 2.14,2.983 l 9.571,5.561 z"
         id="path688"
         inkscape:connector-curvature="0" /><path
         style="fill:#f5b285"
         d="m 277.342,223.948 0.028,9.476 c 0.003,1.07 0.717,2.152 2.148,2.982 l 6.396,3.721 -0.026,-9.477 -6.4,-3.717 c -1.428,-0.829 -2.144,-1.912 -2.146,-2.985 z"
         id="path690"
         inkscape:connector-curvature="0" /><path
         style="fill:#f5b285"
         d="m 326.47,265.291 c -11.565,-4.219 -23.915,-9.07 -28.533,-12.027 -9.496,-6.109 -15.254,-11.422 -21.335,-15.166 l -2.641,-1.533 c -1.426,-0.828 -2.143,-1.912 -2.146,-2.988 l 0.026,18.773 c 0.002,1.076 0.721,2.16 2.148,2.986 0,0 2.064,0.842 7.02,3.881 4.953,3.039 7.29,1.117 7.29,-1.045 v -2.18 c 0,0 6.658,5.965 14.76,10.131 8.105,4.166 17.655,6.533 23.438,8.643 l 44.549,-25.729 -0.025,-9.475 z"
         id="path692"
         inkscape:connector-curvature="0" /></g><g
       id="g700"><g
         id="g698"><path
           style="fill:#ffc19c"
           d="m 275.659,192.759 c -2.792,1.61 -2.738,4.223 0.1,5.855 l 29.047,16.88 -1.071,0.839 -7.933,-4.609 c -2.814,-1.636 -7.357,-1.678 -10.135,-0.078 -2.758,1.594 -2.712,4.231 0.103,5.87 l 9.568,5.561 -1.039,0.84 -4.776,-2.776 c -2.829,-1.645 -7.358,-1.68 -10.132,-0.079 -2.761,1.594 -2.729,4.225 0.098,5.871 l 6.4,3.717 -0.892,0.722 -1.015,-0.593 c -2.834,-1.645 -7.359,-1.679 -10.122,-0.086 -2.773,1.604 -2.716,4.234 0.101,5.871 l 2.641,1.533 c 0.013,0.01 8.112,6.66 21.335,15.166 4.618,2.957 16.968,7.809 28.533,12.027 l 44.55,-25.728 1.477,0.861 c 0.858,-5.258 -6.04,-14.507 -10.264,-19.102 -2.148,-2.332 -2.37,-4.903 -10.659,-8.825 -6.111,-2.881 -9.156,-3.429 -11.94,-5.34 l -6.25,-4.199 c -2.623,-1.783 -4.965,-2.002 -7.576,-0.493 -0.16,0.091 -0.319,0.19 -0.483,0.296 -1.962,1.268 -4.805,4.207 0.833,6.899 0.391,0.259 7.84,5.209 10.024,6.203 1.013,0.93 5.707,5.328 4.689,5.919 -0.164,0.093 -0.473,0.09 -0.965,-0.041 -8.152,-2.193 -21.054,-9.691 -21.734,-10.086 l -32.393,-18.825 c -2.835,-1.646 -7.362,-1.662 -10.12,-0.07 z"
           id="path696"
           inkscape:connector-curvature="0" /></g></g><g
       id="g706"><g
         id="g704"><path
           style="fill:#ffdfcf"
           d="m 279.393,198.924 c 0.266,0.014 0.543,0.022 0.827,0.022 0,0 0,0 0.002,0 3.126,0 7.98,-0.921 8.793,-3.347 l -3.822,-2.221 c -2.346,-1.361 -6.655,-1.394 -8.953,-0.066 -0.939,0.543 -1.482,1.224 -1.48,1.87 0,0.674 0.576,1.391 1.581,1.97 z"
           id="path702"
           inkscape:connector-curvature="0" /></g></g><path
       style="fill:#d1783d"
       d="m 276.242,245.158 v 7.404 c 0,0 0.29,-1.889 3.339,-0.873 l 7.988,4.813 c 0,0 0.925,0.658 0.729,1.67 -0.195,1.012 -0.029,0.289 -0.029,0.289 l 0.029,-2.469 -8.718,-5.318 c 0.001,0 -2.83,-0.799 -3.338,-5.516 z"
       id="path708"
       inkscape:connector-curvature="0" /><path
       style="fill:#f5b285"
       d="m 306.668,215.609 c 7.194,-1.079 7.984,4.208 7.984,4.208 v 0 c -2.23,-4.035 -7.984,-4.208 -7.984,-4.208 z"
       id="path710"
       inkscape:connector-curvature="0" /><path
       style="fill:#f5b285"
       d="m 312.774,210.451 c 7.194,-1.081 7.983,4.205 7.983,4.205 v 0 c -2.23,-4.034 -7.983,-4.205 -7.983,-4.205 z"
       id="path712"
       inkscape:connector-curvature="0" /><path
       style="fill:#f5b285"
       d="m 296.021,223.214 c 7.192,-1.082 7.981,4.204 7.981,4.204 v 0 c -2.23,-4.033 -7.981,-4.204 -7.981,-4.204 z"
       id="path714"
       inkscape:connector-curvature="0" /><path
       style="fill:#f5b285"
       d="m 286.517,230.52 c 7.192,-1.08 7.981,4.209 7.981,4.209 v 0 c -2.232,-4.038 -7.981,-4.209 -7.981,-4.209 z"
       id="path716"
       inkscape:connector-curvature="0" /><g
       id="g724"><g
         style="enable-background:new"
         id="g722"><path
           style="fill:#ffffff"
           d="m 369.797,227.321 c -4.496,-1.724 -10.816,-0.776 -17.864,3.243 -14.014,7.994 -25.621,25.113 -25.935,38.223 -0.153,6.512 2.506,10.811 6.939,12.512 l 31.831,17.023 c -4.436,-1.701 -7.098,-6.002 -6.938,-12.512 0.308,-13.111 11.915,-30.228 25.931,-38.223 7.05,-4.02 13.37,-4.967 17.87,-3.246 z"
           id="path718"
           inkscape:connector-curvature="0" /><path
           style="fill:#cceaf2"
           d="m 383.761,247.588 c -14.016,7.994 -25.623,25.111 -25.931,38.223 -0.316,13.108 10.784,17.252 24.792,9.256 14.017,-7.994 25.642,-25.1 25.956,-38.209 0.313,-13.11 -10.808,-17.264 -24.817,-9.27 z"
           id="path720"
           inkscape:connector-curvature="0" /></g></g></g><g
     id="g740"
     transform="translate(0,-28.149342)"><polygon
       style="fill:#c9bd8d"
       points="265.606,128.99 266.165,128.667 210.78,96.134 209.96,96.608 "
       id="polygon728" /><polygon
       style="fill:#c9bd8d"
       points="268.682,127.215 269.24,126.893 213.854,94.359 213.034,94.832 "
       id="polygon730" /><polygon
       style="fill:#c9bd8d"
       points="216.929,92.584 216.108,93.057 271.757,125.44 272.315,125.118 "
       id="polygon732" /><polygon
       style="fill:#c9bd8d"
       points="262.531,130.765 263.09,130.442 207.706,97.909 206.886,98.383 "
       id="polygon734" /><polygon
       style="fill:#c9bd8d"
       points="256.901,134.014 256.94,133.991 201.558,101.461 201.253,101.636 "
       id="polygon736" /><polygon
       style="fill:#c9bd8d"
       points="259.457,132.54 260.016,132.217 204.632,99.685 203.813,100.158 "
       id="polygon738" /></g><g
     id="g746"
     transform="translate(0,-28.149342)"><polygon
       style="fill:#c9bd8d"
       points="165.652,206.262 165.652,206.262 166.346,205.862 110.061,172.8 109.365,173.202 136.207,188.967 "
       id="polygon742" /><polygon
       style="fill:#c9bd8d"
       points="178.645,198.761 122.257,165.639 121.435,166.114 178.089,199.082 175.57,200.537 119.208,167.429 118.386,167.903 175.015,200.857 172.495,202.311 116.159,169.219 115.337,169.694 171.94,202.632 169.42,204.087 113.11,171.009 112.288,171.483 168.865,204.407 181.72,196.988 125.299,163.853 124.484,164.324 181.165,197.307 "
       id="polygon744" /></g><polygon
     style="opacity:0.3;fill:#181d28"
     points="308.952,302.217 294.791,294.041 244.925,322.737 259.33,331.054 "
     id="polygon748"
     transform="translate(0,-28.149342)" /></svg>
